<svg xmlns="http://www.w3.org/2000/svg" width="500.002" height="463.507" viewBox="0.002 18.229 500.002 463.507"><circle fill="#FFF" cx="250" cy="185.547" r="115.527"/><g fill="#9C1737"><path d="M297.982 274.184c-1.594.797-5.04.43-10.25-1.1-5.8-1.698-11.012.065-16.53 1.935-4.073 1.37-7.51.41-10.833-.52-1.062-.302-2.052-.57-3.07-.78-4.13-.852-5.49-.592-11.21.52l-1.85.35c-6.12 1.17-11.41-.72-16.52-2.54-.7-.25-1.39-.5-2.07-.73-4.68-1.6-10.34-1.19-16.81 1.24-3.15 1.18-12.14-.52-15.35-1.27-.7-.16-1.41.27-1.57.97-.17.7.26 1.4.96 1.56 1.25.3 12.4 2.85 16.85 1.18 5.89-2.21 10.95-2.62 15.03-1.22.66.23 1.34.48 2.03.72 5.18 1.85 11.06 3.95 17.87 2.66l1.84-.36c5.7-1.1 6.568-1.27 10.19-.52.93.19 1.878.46 2.89.74 2.228.62 4.648 1.3 7.35 1.3 1.57 0 3.23-.23 5.01-.84 6.19-2.09 10.29-3.27 14.96-1.9 6.11 1.79 9.85 2.08 12.14.93.64-.32.9-1.1.57-1.75-.32-.64-1.1-.9-1.75-.59l.05-.05.072.064zm-14.093 6.493c-.266.013-.898-.05-1.417-.1-1.566-.146-3.717-.35-5.83.02-1.603.283-4.533.397-7.367.508-2.842.11-5.524.214-6.985.49-2.56.48-9.773.164-13.653-.006l-.39-.02c-3.842-.167-13.326-1.698-15.194-2.075-2.02-.404-6.774-.184-11.228.887-4.01.965-8.465.004-8.52-.006-.698-.15-1.39.29-1.548.99-.15.7.292 1.4.992 1.55.21.054 5.073 1.107 9.686 0 4.286-1.025 8.625-1.16 10.12-.857 1.56.31 11.38 1.93 15.594 2.12l.39.02c2.49.11 5.97.26 8.99.26 2.15 0 4.07-.07 5.26-.29 1.27-.24 3.98-.35 6.61-.45 2.92-.12 5.94-.23 7.73-.54 1.77-.31 3.71-.13 5.13.01 1.56.15 2.34.22 2.96-.26.56-.44.67-1.26.23-1.83-.382-.47-1.01-.62-1.54-.4l-.06-.05.04.027z"/><path d="M314.286 267.2l7.48-14.376c.33-.637.083-1.422-.554-1.753-.64-.328-1.423-.078-1.754.56l-8.03 15.42c-2.21-.188-4.44-.52-6.61-1.058-12.04-2.98-27.96-.22-31.15.79-2.79.88-6.6 2.09-17.2-.03-1.448-.28-2.67-.54-3.74-.76-6.93-1.44-7.68-1.53-17.31-.47-7.97.87-11.76.39-15.77-.12-1.54-.19-3.14-.4-5-.53-2.24-.16-3.84-.36-5.24-.52-2.39-.29-4.07-.5-6.88-.25-.38-2.01-1.46-5.99-4.28-9.49-3.38-4.18-11.94-5.83-17.61-6.91-1.03-.2-1.96-.38-2.72-.55-2.34-.522-3.42-3.84-3.84-6.3 1.89.13 3.87.27 5.9.42.1.02.19.04.29.04.03 0 .06-.012.09-.012 5.02.35 10.41.68 16.05 1 .1.02.2.04.3.04.05 0 .1-.01.15-.01 2.89.16 5.83.32 8.83.47.24.27.59.46.98.46.35 0 .67-.14.91-.37 7.58.36 15.41.66 23.22.86.07.01.13.03.2.03.05 0 .1-.02.15-.03 20.22.49 40.25.25 55.23-1.53l.062-.01c1.85-.22 3.64-.46 5.32-.72 8.38-1.34 10.9-8.79 11-9.11.01-.03.02-.04.02-.07.02-.05 1.39-4.99 7.84-4.99 4.44 0 14.84-.65 30.91-1.95-1.41 4.39-3.19 8.85-3.98 9.44-1.1.47-8.95.95-15.97 1.14-1-.198-5.28-.67-8.85 3.962-.69.89-1.21 1.66-1.67 2.34-1.73 2.56-2.09 3.1-7.63 3.1-1.84 0-6.94.19-14 .46-23.1.88-66.1 2.53-85.81.94-.74-.07-1.35.47-1.4 1.18-.05.72.48 1.35 1.19 1.4 6.03.49 14.2.68 23.3.68 20.89 0 46.68-.99 62.82-1.61 7.028-.27 12.108-.47 13.898-.47 6.59 0 7.66-1.1 9.79-4.25.44-.64.93-1.37 1.57-2.21 2.89-3.76 6.21-3.03 6.34-2.99.12.03.24.04.36.04 1.42-.03 4.18-.12 7.07-.26-1.72 4.11-3.85 7.72-4.74 7.95-.35.02-8.6.6-10.56 3.12-.34.45-.65.94-.97 1.47-.91 1.52-1.86 3.08-3.71 3.48-2.21.5-18.842.88-29.48 1.02-.71.01-1.29.61-1.28 1.32.02.72.59 1.29 1.3 1.29h.02c2.74-.03 26.83-.37 30.02-1.08 2.94-.65 4.35-2.97 5.37-4.68.29-.46.55-.9.8-1.22.65-.82 4.94-1.87 8.69-2.12 2.91-.19 5.86-6.61 7.45-10.71 3.28-.222 6.25-.52 7.17-.95 2.14-.97 4.65-8.49 5.96-12.89v-.02c.02-.08.04-.18.04-.27v-.01c.01-.09 0-.19-.02-.28l-.03-.09c-.01-.05-.02-.1-.03-.14-.05-.15-5.15-13.91-6.66-31.6-1.34-15.71 0-37.71 13.49-54.75-.45-.95-.92-1.91-1.4-2.85l-23 16.36c-.32-4.65-.23-16.01 6.82-25.3h4.1c.71 0 1.3-.58 1.3-1.3 0-.72-.59-1.3-1.3-1.3H321.3L308.48 105v-3.2c0-.72-.587-1.3-1.3-1.3-.72 0-1.306.58-1.306 1.3v3.2l-12.17 16.548c-.34-.673-.67-1.34-.97-2l-.02-.054c-8.6-18.595-.86-30.728 1.3-33.566l7.8-.196c.14-.003.27-.04.39-.085-1.593-.84-3.204-1.645-4.833-2.41l-3.133.08c-.43-.26-.98-.245-1.39.034l-35.25.89v-4.93c0-.71-.58-1.3-1.3-1.3s-1.3.59-1.3 1.3v5.01l-16.23.41c-.72.01-1.29.61-1.27 1.33.02.71.6 1.26 1.3 1.26h.04l3.01-.08c-4.273 4.83-12.61 16.83-9.24 34.28h.01c.07.39.16.78.25 1.17-1.126 1.21-3.747 4.35-5.456 9.13-5.303-.79-12.564-1.09-19.293-1.16v-6.95c5.78-.02 9.42 2.56 9.65 2.73.44.32 1.03.34 1.49.04.45-.3.68-.85.56-1.38-.6-2.72-.81-5.19-.76-7.4 2.75-.06 5.24-.16 7.29-.29.72-.05 1.27-.66 1.22-1.39-.05-.71-.69-1.25-1.38-1.21-1.95.13-4.32.22-6.92.29 1.01-8.05 5.51-12.12 5.76-12.34.42-.37.56-.95.36-1.45-.2-.51-.7-.85-1.25-.83l-15.99.45v-10.2c0-.72-.58-1.3-1.3-1.3-.72 0-1.3.59-1.3 1.3v10.26l-12.2.35c-.42.01-.81.22-1.04.57-2.93 4.32-4.43 8.82-5.09 13.03-3.22-.07-5.27-.13-5.35-.13-.71-.05-1.31.54-1.34 1.26-.02.71.55 1.31 1.27 1.33.08 0 2.03.05 5.12.12-.43 5.35.38 10.01 1.09 12.84-7.04 6.8-11.7 16.39-11.19 26.72-2.43.67-8.61 2.71-15.24 7.31-7.53 5.23-17 14.89-19.98 31.35l-4-4.35c-.12-2.05-.17-4.11-.17-6.19 0-53.27 37.2-98.03 86.98-109.66-49.93 11.52-87.14 56.25-87.14 109.67 0 53.22 36.94 97.8 86.57 109.532-.67-.16-1.33-.31-1.98-.48-1.42-.36-2.83-.77-4.23-1.18-.9-.27-1.78-.55-2.67-.84-1.14-.38-2.29-.77-3.42-1.18-.88-.32-1.75-.66-2.62-.99-.99-.39-1.96-.79-2.93-1.21-.86-.37-1.71-.74-2.56-1.13-.83-.38-1.66-.78-2.49-1.182-.84-.4-1.68-.83-2.5-1.25-.97-.51-1.93-1.02-2.88-1.54-.82-.46-1.63-.92-2.44-1.39-.77-.46-1.54-.92-2.3-1.39-.79-.5-1.58-1-2.36-1.51-.8-.53-1.59-1.06-2.37-1.6-.77-.53-1.53-1.08-2.29-1.63-.76-.56-1.51-1.13-2.26-1.69-.74-.58-1.48-1.15-2.2-1.74-.48-.39-.96-.78-1.43-1.18-.72-.6-1.44-1.21-2.13-1.82-.58-.5-1.15-1.01-1.71-1.52-.28-.25-.53-.49-.8-.74 2.97-.49 8.1-1.1 12.96-.55 7.2.81 9.86.49 14.27-.07l1.25-.16c3.28-.41 4.88-.21 7.5.11 1.36.17 3.05.38 5.36.54 1.79.13 3.35.32 4.85.52 4.17.52 8.1 1.03 16.38.13 9.45-1.03 9.85-.95 16.5.44 1.07.22 2.3.48 3.75.77 4.49.9 7.84 1.24 10.5 1.24 3.51 0 5.83-.59 7.99-1.27 2.93-.93 18.41-3.55 29.74-.74 2.54.63 5.19 1 7.83 1.18.05.01.11.03.17.03.02 0 .03-.01.04-.01 4.31.28 8.57.05 12.23-.39 1.15-1.03 2.28-2.08 3.4-3.15-3.522.63-8.38 1.2-13.59 1.04l-.132.05.02-.06zm-5.844-157.752l9.615 13.24h-9.615v-13.24zm0 15.844h22.21c-6.824 10.157-6.57 21.756-6.178 26.113-2.95-.372-9.257-.896-16.033.23l.01-26.344h-.008zm0 29.034c5.513-.965 10.788-.788 14.034-.496l-7.715 5.48h-6.31v-4.993l-.01.01h.002zm0 7.59h2.66l-2.66 1.885v-1.89.01-.004zm0 5.082l37.41-26.608c-8.65 13.574-12.276 31.266-10.527 51.738 1.24 14.496 4.853 26.405 6.254 30.603-16.14 1.31-26.55 1.96-30.94 1.96-.79 0-1.52.06-2.2.18v-57.88.01l.002-.002zm-17.08 71.882c-1.38.23-2.817.43-4.306.62l-5.634-14.48c5.535 1.53 11.097 4.51 16.647 8.95.14.31.265.58.37.8-1.373 1.71-3.603 3.562-7.065 4.12h-.015v-.01zm14.477-13.26c-3.39 1.44-5.08 4.23-5.55 5.94-.02.07-.09.25-.21.51-3.4-8.06-13.102-36.4 5.75-61.98v55.52l-.01.02.02-.01zm0-66.31h-10.05c3.01-2.19 6.51-3.58 10.04-4.44v4.45l.01-.01zm0-49.91v13.28h-9.78l9.77-13.28h.01zm-11.67 15.89h11.66v26.87c-4.38 1-8.8 2.77-12.522 5.76-2.4-5.41-7.69-20.38.86-32.62h-.01l.01-.01zm-3.102 34.02h-4.84c-1.97-3.79-11.04-23.14 1.64-34.11l3.18.05c-8.24 13.41-2.49 28.72-.01 34.06l.01.01.02-.01zm-33.56-72.48L290.78 86c-2.82 4.59-7.55 15.42-2.2 30.44-11.26-7.36-22.33-8.16-31.09-6.83V86.85l.01-.018h.01zm0 25.48c9.672-1.58 21.36-.33 32.95 8.66.26.55.53 1.11.812 1.67l-33.78-.49v-9.82l.01-.01.01-.01zm0 12.43l26.7.39c-7.85 8.66-5.84 20.62-3.23 28.36-4.76-2.98-13.798-7.59-23.488-7.07v-21.68h.02zm0 24.29c12.03-.66 23.432 7.48 25.13 8.73.24.58.48 1.09.69 1.54H257.5v-10.24l.01-.03zm0 12.87h48.312v3.96c-13.66 16.64-14.89 34.62-13.5 46.8.79 6.88 2.43 12.66 3.87 16.69-5.67-3.92-11.02-6.16-15.93-7.24l-22.77-58.47v-1.72h.01l.01-.02zm0 8.9l19.762 50.77c-6.63-.88-12.34.25-16.77 1.92-1.06.39-2.05.83-3.01 1.28V170.8h.02zm0 56.87c1.21-.63 2.512-1.22 3.9-1.74 5.57-2.09 11.23-2.63 16.92-1.61l6.03 15.49c-7.87.86-17.06 1.31-26.87 1.47V227.7l.01-.03h.01zM208 103.53l13.064-.373c-1.715 2.31-3.938 6.308-4.57 11.997-2.702.04-5.584.06-8.495.056v-11.68.002-.002zm0 14.28h.794c2.57 0 5.118-.015 7.52-.05-.03 1.612.065 3.33.33 5.163-1.945-.87-4.92-1.82-8.648-1.81v-3.29H208v-.013zm46.916 123.52c-7.42.08-15.16.01-22.943-.174l-4.215-13.22c5.31 1.55 11.153 4.103 17.438 8.1.053.036.115.058.177.083.042.01.082.04.124.05.124.03.25.06.38.06h.014l.02-.01c.09 0 .19-.01.29-.04l.02-.01c.05-.01.09-.03.14-.05.03-.01.07-.02.1-.04.08-.04.15-.08.22-.14l.01-.01c.07-.062.13-.12.2-.19l.01-.01c.04-.05 2.95-3.45 8.02-6.6v12.16h.03l-.034.04zm-17.958-78.225l-.02-.027c.072-.12.143-.23.213-.348.3 5.15 1.7 18.592 8.13 28.12-4.99 10.208-5.44 23.813-1.38 41.333l-.57-.33c-.85-.92-6.67-7.47-10.67-17.85-5.75-14.92-5.22-30.24 1.56-45.55.51-1.14 1.04-2.22 1.59-3.27.06.01.1.02.15.02.28 0 .55-.09.79-.26.58-.43.69-1.25.26-1.82H237l-.042-.018zm17.958 63.034c-3.826 2.17-6.653 4.58-8.312 6.17-4.647-19.57-3.617-34.02 3.17-44.08 2.194-3.26 3.897-7.43 5.142-11.2v49.11zm0-59.23c-.248 1.25-2.674 13.01-7.302 19.87-.32.47-.625.96-.92 1.45-5.652-9.28-6.76-22.21-6.974-26.32h15.195v5zm0-7.6H239.46c1-1.33 2.052-2.53 3.154-3.6.357.03.73-.07 1.015-.33.27-.26.41-.61.41-.95 2.77-2.33 5.82-3.93 9.16-4.75.57-.14 1.13-.25 1.71-.35v9.97l-.012-.02.018.03zm0-37.2l-19.7-.29-.023-.12c2.128-1.57 9.615-6.63 19.724-8.88v9.29zm-9.19-34.98l9.192-.23v23.19c-1.19.25-2.33.53-3.41.84-2.11.6-4.082 1.3-5.896 2.04-5.368-13.16-1.14-23.32.114-25.84zM241.2 92.1c-1.228 5.15-1.696 12.84 2.03 21.91-3.86 1.78-6.798 3.63-8.53 4.84-1.7-12.28 2.742-21.45 6.5-26.75zm-6.085 32.32l19.803.29v21.98c-.77.11-1.545.26-2.32.45-3.663.9-7.007 2.62-10.027 5.11-10.74-12.6-8.38-24.58-7.45-27.85l-.005.02zm-3.332 3.77c-.602 5.89.204 15.71 8.846 25.81-1.93 1.9-3.71 4.16-5.34 6.77-10.67-15.59-7.01-26.9-3.52-32.58H231.782zm2.063 35.05c-.717 1.3-1.39 2.67-2.037 4.13-8.83 19.93-5.72 36.91-1.57 47.65 2.31 5.96 5.15 10.67 7.4 13.87-3.82-1.78-7.44-3.06-10.85-3.94l-15.95-50.05 16.14-.11c.02 0 .02-.01.04-.01s.04-.01.06-.01c.11-.01.23-.04.34-.08.01 0 .02 0 .02-.01.11-.05.22-.12.33-.21l.02-.02c0-.01.01-.02.02-.02.09-.09.17-.19.24-.3l.02-.057c.06-.118.1-.24.13-.36.02-.08.03-.17.02-.25 0-.038 0-.08-.01-.126l-.01-.07c-.02-.128-.06-.24-.12-.367 0-.01 0-.01-.01-.02-.13-.24-11.91-24.06-1.71-38.2-1.67 7.05-.99 16.79 7.4 28.54l.05-.02.036.04zM208 133.27c5.374.06 11.067.26 15.76.737-7.79 11.84-2.718 28.495.302 36.074-6.127-3.68-11.484-5.74-16.07-6.74v-30.08l.008.01zm0 32.745c4.214.983 9.066 2.907 14.583 6.216l-14.583.1V166.016zm0 8.92h.132l15.726 49.35c-6.136-1.24-11.476-1.214-15.868-.647v-48.7h.01v-.003zm0 51.323c4.524-.63 10.19-.645 16.77.887l4.445 13.94c-7.146-.19-14.283-.47-21.225-.79v-14.03h.01v-.007zm-27.124 12.433l-.496-.528c-2.94-4.58-5.19-9.06-6.907-13.37-.053-.12-.106-.24-.15-.38-.354-.88-.69-1.77-.992-2.64.14-.1.23-.24.31-.39.08-.12.12-.25.15-.4.03-.17.04-.35-.01-.54-.15-.57-.64-.94-1.2-.96-.09-.29-.17-.58-.25-.87l-.08-.25c-3-10.25-3.07-19.22-2.26-25.89 1.21-10.02 4.53-16.89 5.46-18.66 1.13-.35 2.3-.67 3.49-.96-1.41 3.28-3.56 9.62-3.71 18.31-.12 7.07 1.16 16.57 6.2 27.58l.05.09c.83 1.81 1.75 3.65 2.79 5.52.05.15.13.29.22.42 1.49 2.66 3.21 5.38 5.17 8.16.05.08.09.16.16.24 0 .01.01.01.02.02 1.5 2.1 3.13 4.23 4.92 6.4-4.49-.25-8.8-.542-12.88-.812l.04-.06-.044-.03zm-14.92-37.42c-5.65.92-9.5 3.3-11.786 5.2 1.957-14.63 14.673-29.1 16.762-31.41-1.46 3.32-3.577 9.19-4.524 16.94-.337 2.75-.532 5.86-.46 9.27h.008zm.106 2.63c.292 4.86 1.17 10.26 2.93 16.02l.036.14-.363.1-3.932 1.02-10.396-11.3c1.426-1.51 5.18-4.8 11.706-5.95l.02-.02v-.01zm3.772 18.63c.053.17.124.35.186.52l.115.34c.328.91.673 1.82 1.045 2.74l.186.46c.47 1.15.974 2.31 1.532 3.48l-2.46-2.67-.355-.38-1.895-2.05-.284-.31-1.195-1.29 3.09-.79.02-.02.014-.03zm9.962-47.39l24.953-.17-20.39 45.95c-.68-1.32-1.3-2.61-1.87-3.88h-.01c-4.6-10.26-5.79-19.09-5.7-25.69.09-7.26 1.71-12.85 2.99-16.19l.01-.02h.016zm25.573 65.01c-2.73-.13-5.41-.27-8.05-.42-2.12-2.44-4.03-4.85-5.75-7.21 1.92-1.36 6.72-4.33 13.79-5.79v13.44-.01l.01-.01zm0-16.08l-.62.12c-7.51 1.57-12.56 4.67-14.69 6.2-1.54-2.23-2.92-4.43-4.15-6.58L205.36 180v44.078l.01-.01v.003zm0-51.71l-24.45.17.17-.35c1.24-.21 2.51-.39 3.82-.52.35-.03.68-.21.9-.49.09-.11 6.23-7.68 19.54-5.64v6.84l.01-.01h.01zm0-41.71c-6.22-.02-11.67.14-14.23.22 1.26-1.09 2.59-2.08 3.97-2.97 3.76-2.43 7.22-3.57 10.24-3.99v6.76l.02-.02zm-11.45-26.72l11.46-.32v11.6c-5.71-.02-11.34-.11-15.67-.19.59-3.59 1.85-7.42 4.21-11.07l-.01-.01.01-.01zm-4.54 13.67c4.38.09 10.14.18 15.99.21v3.46c-3.44.41-7.38 1.68-11.66 4.44-1.28.82-2.51 1.73-3.69 2.7-.52-2.52-1.04-6.4-.66-10.8h-.01l.03-.01zm-.62 15.53c.25.27.6.41.99.4.13 0 7.18-.28 15.62-.26v29.62c-4.4-.63-7.98-.3-10.76.38-5.98 1.46-9.38 4.68-10.47 5.87-.53.05-1.05.13-1.57.2-6.86-13.49-2.55-27.2 6.17-36.21h-.01.03zm-11.9 26.65c.44 3.29 1.42 6.64 3.02 9.98l-.03.01c-2.27.43-4.44.98-6.5 1.64-.15.02-.3.07-.44.15-.98.32-1.93.66-2.86 1.03-.18.03-.35.09-.51.2-11.95 4.85-20.04 13.11-24.52 18.79 6.38-22.63 26.35-30.13 31.82-31.79h-.01l.03-.01zm-11.52 17.86c-4.86 6.13-12.53 17.46-13.85 29.15l-7.93-8.62c1.79-2.95 8.9-13.59 21.76-20.53h.02zm-27.63 17.99l24.16 26.28-16.91 4.38c-3.79-9.64-6.28-19.93-7.26-30.65l.01-.01zm11.31 39.77c-.17-.34-.34-.68-.51-1.03-.42-.85-.82-1.698-1.21-2.56-.47-1.02-.92-2.06-1.36-3.1l16.68-4.31 1.22-.32.07.07 1.9 2.07.33.37 1.88 2.06.41.45 8.61 9.36c-1.19-.08-2.34-.16-3.47-.24-.25-.34-.65-.56-1.12-.53-.35.02-.65.17-.87.392-4.7-.35-8.9-.68-12.45-.99-.5-.03-.98-.08-1.45-.11-1.47-.12-2.82-.24-4.02-.34l-1.49-.13c-1.07-.09-2-.17-2.77-.24-.15-.29-.3-.56-.44-.83h.03l.03-.04zm37.32 29.05c-6.55-.74-13.32.45-15.59.91l-.18-.17c-.67-.66-1.33-1.33-1.98-2-.41-.43-.81-.858-1.22-1.3-.64-.69-1.27-1.38-1.89-2.08-.39-.43-.78-.87-1.16-1.318-.61-.71-1.22-1.43-1.81-2.16-.35-.43-.71-.86-1.05-1.3-.59-.73-1.16-1.48-1.73-2.23-.28-.37-.55-.74-.83-1.12-.56-.75-1.11-1.52-1.64-2.29-.22-.31-.45-.63-.66-.94-.53-.77-1.05-1.56-1.56-2.35-.25-.38-.49-.77-.73-1.16-.5-.8-.99-1.6-1.47-2.41-.22-.37-.44-.73-.65-1.1-.46-.79-.92-1.6-1.35-2.41l3.91.35c.52.05 1.05.1 1.61.14 4.04.35 9.14.76 15.01 1.2.39 2.76 1.69 8.1 5.93 9.04.78.17 1.73.36 2.8.56 4.98.96 13.3 2.55 16.07 5.99 2.37 2.93 3.33 6.36 3.71 8.15-4.31.55-6.72.84-13.57.06l-.01-.02.04-.04z"/></g><path fill="#FFF" d="M499.572 343.236l-40.165-50.83c-.02-.023-.045-.043-.064-.066-.054-.057-.105-.112-.17-.164-.043-.036-.078-.07-.123-.104-.062-.054-.124-.09-.186-.133l-.15-.08c-.07-.04-.133-.07-.204-.09-.053-.03-.115-.05-.168-.062-.07-.02-.133-.04-.204-.05-.035-.01-.062-.02-.088-.02-.045-.01-.08 0-.115-.01-.034 0-.07-.02-.114-.02h-78.26c.055-.062.1-.13.15-.2.586-.73 1.17-1.44 1.754-2.18.604-.76 1.196-1.53 1.78-2.3.565-.74 1.125-1.49 1.674-2.24.638-.87 1.274-1.74 1.895-2.61.53-.76 1.062-1.53 1.595-2.31.585-.86 1.16-1.73 1.727-2.6.515-.78 1.02-1.562 1.516-2.352.51-.82 1.03-1.64 1.54-2.47.48-.8.95-1.61 1.42-2.41l1.47-2.55c.46-.82.92-1.62 1.36-2.45 12.8-23.64 20.07-50.7 20.07-79.42.05-92.22-75.03-167.29-167.31-167.29S82.86 93.336 82.86 185.616c0 28.377 7.11 55.12 19.623 78.56.44.822.886 1.64 1.34 2.455.47.85.94 1.692 1.423 2.53.466.808.943 1.606 1.423 2.406.5.817 1 1.63 1.5 2.438.5.787.99 1.576 1.5 2.354.557.857 1.12 1.718 1.693 2.566.52.772 1.06 1.534 1.594 2.296.61.87 1.23 1.738 1.85 2.598.55.754 1.1 1.506 1.667 2.25.574.76 1.16 1.52 1.75 2.275.577.736 1.16 1.463 1.746 2.18.3.37.59.744.9 1.105h-78.7c-.04 0-.08.01-.11.01h-.12c-.04 0-.06.01-.09.02-.07.01-.13.03-.2.05-.07.01-.13.03-.19.06l-.19.08c-.06.03-.11.06-.16.09-.06.04-.12.07-.17.12-.06.04-.1.07-.14.12-.06.05-.1.09-.14.15l-.08.08L.43 343.25c-.678.86-.535 2.103.32 2.783 34.687 27.615 73.36 49.125 114.94 63.93 43.03 15.316 88.22 23.08 134.314 23.08 46.096 0 91.285-7.764 134.31-23.082 41.586-14.788 80.257-36.298 114.94-63.92.857-.68 1-1.92.32-2.778v-.01l-.002-.016zm-86.015-160.77l-50.23-23.47c-10.012-42.55-43.478-76.148-85.95-86.36l-23.53-50.356c87.37 1.917 158.047 72.755 159.708 160.186h.002zm-49.093-18.053l45.888 21.443-45.994 21.49c1.337-7.04 2.046-14.303 2.046-21.728 0-7.24-.673-14.327-1.948-21.203l.008-.002zM324.832 269.36c-.56.5-1.124.997-1.697 1.487-.708.605-1.422 1.203-2.146 1.79-.49.397-.972.793-1.46 1.18-.73.575-1.472 1.142-2.222 1.7-.77.572-1.54 1.13-2.31 1.682-.76.53-1.53 1.06-2.3 1.58-.8.54-1.61 1.06-2.42 1.58-.79.5-1.58.98-2.38 1.46-.78.46-1.56.92-2.34 1.37-.82.46-1.62.91-2.45 1.35-.97.51-1.94 1.02-2.92 1.5-.84.41-1.67.82-2.51 1.21-.84.39-1.68.78-2.53 1.15-.85.37-1.71.74-2.57 1.09-.98.4-1.97.79-2.96 1.16-.87.318-1.75.64-2.62.94-1.15.398-2.3.778-3.45 1.14-.89.27-1.77.54-2.67.79-1.41.4-2.83.77-4.26 1.12-.9.21-1.81.42-2.71.62-1.08.228-2.16.448-3.25.65-.92.17-1.83.318-2.74.468-1.26.2-2.53.39-3.79.54-.92.11-1.85.21-2.77.31-1.39.13-2.78.24-4.19.32-.92.05-1.85.1-2.78.13-1.23.04-2.47.07-3.71.08h-.57c-.75 0-1.48-.02-2.22-.03h-.02c-1.24-.03-2.48-.068-3.7-.14-.93-.05-1.86-.1-2.78-.17-1.4-.11-2.79-.25-4.18-.41-.92-.11-1.84-.23-2.76-.36-1.27-.17-2.53-.37-3.77-.59-.92-.16-1.83-.33-2.74-.51-.22-.04-.42-.1-.63-.14-.14-.04-.29-.06-.44-.1-.72-.15-1.44-.3-2.16-.47l-.72-.18c-49.47-11.69-86.27-56.12-86.27-109.16 0-53.23 37.09-97.81 86.84-109.28 8.2-1.92 16.76-2.94 25.54-2.94 16.98 0 33.09 3.8 47.54 10.58 0 0 4.66 2.37 4.71 2.35 20.46 10.81 37.2 27.74 47.74 48.35 0 0 1.32 2.84 1.37 2.78 6.97 14.6 10.88 30.93 10.88 48.16 0 16.88-3.76 32.91-10.47 47.29-.4.85-.81 1.7-1.22 2.53-.18.35-.35.71-.52 1.06-.43.83-.87 1.66-1.31 2.49-.19.33-.38.67-.57 1.02-.46.81-.92 1.62-1.4 2.43-.23.38-.45.76-.67 1.13-.49.81-.98 1.6-1.49 2.39-.25.39-.51.78-.77 1.17-.51.78-1.04 1.56-1.57 2.33-.23.33-.45.66-.68.99-.54.76-1.09 1.51-1.65 2.26-.28.38-.59.75-.87 1.13-.57.74-1.15 1.48-1.73 2.2l-1.08 1.32c-.61.72-1.21 1.42-1.83 2.12-.4.45-.79.89-1.2 1.33-.63.69-1.26 1.38-1.9 2.05-.42.44-.85.87-1.27 1.3-.66.66-1.32 1.33-1.98 1.98l-.29.05c-1.11 1.07-2.24 2.12-3.38 3.13l.26-.03-.05.08.134.112zM250.455 25.478l21.49 45.992c-7.043-1.337-14.305-2.045-21.73-2.045-7.24 0-14.325.67-21.202 1.944l21.446-45.89-.006-.01v.008zm-3.39-3.204l-23.47 50.23c-42.55 10.01-76.148 43.477-86.36 85.95l-50.356 23.53c1.91-87.37 72.75-158.047 160.18-159.71h.005zM135.973 206.82l-45.895-21.445 45.99-21.49c-1.337 7.043-2.045 14.305-2.045 21.73 0 7.244.675 14.328 1.95 21.205zM241.82 348.787c-.927-.047-1.85-.113-2.772-.18-2.28-.15-4.545-.353-6.798-.602-.92-.102-1.843-.2-2.76-.315-2.1-.267-4.18-.585-6.244-.93-.92-.153-1.833-.31-2.745-.476-1.85-.345-3.7-.72-5.53-1.125-.91-.212-1.81-.41-2.71-.622-2.29-.55-4.57-1.14-6.81-1.78-.89-.26-1.78-.53-2.66-.8-1.93-.59-3.84-1.21-5.74-1.86-.87-.31-1.75-.608-2.63-.93-1.7-.62-3.38-1.27-5.05-1.95-.87-.35-1.72-.7-2.57-1.06-1.5-.64-2.98-1.3-4.46-1.98-.85-.39-1.69-.78-2.52-1.18-1.67-.81-3.33-1.64-4.97-2.5-.82-.43-1.64-.86-2.46-1.31-1.41-.76-2.79-1.55-4.17-2.36-.8-.47-1.6-.94-2.4-1.42-1.44-.87-2.86-1.77-4.27-2.69-.78-.51-1.56-1.02-2.33-1.53-1.38-.93-2.74-1.89-4.1-2.858-.75-.55-1.5-1.09-2.25-1.65-.97-.73-1.95-1.47-2.9-2.21-.73-.58-1.46-1.15-2.18-1.74-1.11-.89-2.2-1.81-3.28-2.73-.71-.6-1.42-1.21-2.11-1.82-.88-.78-1.76-1.57-2.62-2.36-.68-.63-1.37-1.27-2.04-1.908-.87-.83-1.73-1.67-2.57-2.51-.67-.66-1.31-1.32-1.97-2-.83-.852-1.65-1.72-2.46-2.59-.63-.682-1.26-1.36-1.88-2.06-.77-.86-1.54-1.722-2.29-2.602-.61-.71-1.2-1.42-1.8-2.14-.65-.79-1.3-1.58-1.94-2.38-.59-.73-1.17-1.46-1.74-2.2-.57-.73-1.13-1.45-1.67-2.19-.56-.75-1.11-1.5-1.66-2.26-.6-.83-1.18-1.66-1.77-2.49-.53-.77-1.06-1.53-1.58-2.31-.55-.81-1.09-1.64-1.62-2.46-.51-.79-1-1.58-1.49-2.37-.48-.77-.96-1.55-1.43-2.34-.47-.8-.95-1.6-1.41-2.41-.46-.8-.91-1.61-1.35-2.42-.45-.82-.89-1.64-1.33-2.47-11.63-21.88-18.4-46.71-18.9-73.07l50.24 23.48c1.81 7.68 4.37 15.09 7.63 22.1.4.86.81 1.7 1.22 2.54l.56 1.13c.42.83.86 1.67 1.3 2.5.2.36.4.73.59 1.09.45.82.91 1.64 1.39 2.44l.72 1.21c.48.81.97 1.61 1.48 2.39.26.43.53.85.8 1.26.51.79 1.03 1.57 1.56 2.34.23.36.47.7.72 1.06.54.76 1.09 1.53 1.64 2.28.3.41.6.81.91 1.22.57.75 1.14 1.48 1.73 2.22.37.47.75.94 1.13 1.41.59.72 1.19 1.43 1.81 2.14.41.48.83.95 1.25 1.41.62.7 1.25 1.392 1.89 2.07.43.46.88.93 1.32 1.38.65.682 1.31 1.34 1.97 1.99.44.44.89.88 1.34 1.31.68.65 1.37 1.28 2.06 1.91.6.55 1.21 1.08 1.82 1.61.71.61 1.42 1.22 2.14 1.81.5.43 1.02.83 1.54 1.25.73.59 1.46 1.16 2.2 1.722.79.6 1.58 1.19 2.39 1.78.75.55 1.51 1.08 2.29 1.608.83.58 1.66 1.13 2.51 1.68.78.51 1.57 1 2.35 1.5.81.49 1.62.98 2.44 1.46.8.472 1.61.93 2.43 1.37 1 .55 2 1.102 3.02 1.62.83.43 1.66.84 2.5 1.24.87.43 1.75.83 2.64 1.24.84.38 1.69.75 2.55 1.12 1.02.43 2.05.85 3.08 1.25.86.34 1.74.66 2.61.98 1.19.42 2.39.83 3.59 1.23.88.28 1.76.56 2.66.83 1.46.43 2.93.85 4.42 1.228.5.13 1.02.25 1.52.37l23.55 50.38c-1.54-.04-3.09-.08-4.63-.15l.13.07-.07.07zm8.172-2.705l-21.657-46.35c.624.12 1.246.24 1.873.35 1.313.23 2.634.44 3.962.62.916.13 1.834.24 2.756.35 1.452.17 2.91.31 4.377.43.93.07 1.85.13 2.78.18 1.293.07 2.595.11 3.896.14h.03c.74.02 1.48.03 2.21.03.17 0 .348 0 .53-.01h.03c1.31 0 2.6-.03 3.89-.09.93-.03 1.85-.08 2.78-.13 1.47-.09 2.938-.2 4.39-.35.92-.09 1.84-.2 2.76-.31 1.33-.17 2.65-.35 3.97-.57.91-.15 1.83-.3 2.73-.47.24-.04.48-.09.72-.14L250 346.088l-.025.01.017-.018zm126.9-57.4c-.654.81-1.32 1.6-1.99 2.4-.605.708-1.205 1.42-1.82 2.118-.77.88-1.543 1.75-2.33 2.61-.63.69-1.262 1.37-1.9 2.04-.826.88-1.665 1.74-2.51 2.59-.656.67-1.313 1.32-1.98 1.97-.865.85-1.74 1.68-2.62 2.51-.683.64-1.36 1.27-2.05 1.9-.882.8-1.77 1.59-2.67 2.37-.7.61-1.415 1.21-2.127 1.8-1.102.92-2.214 1.83-3.338 2.72-.727.58-1.463 1.15-2.2 1.71-.977.75-1.956 1.48-2.95 2.21-.75.55-1.5 1.1-2.26 1.63-1.37.97-2.76 1.91-4.16 2.84-.774.51-1.55 1.02-2.335 1.52-1.42.91-2.86 1.792-4.32 2.65-.79.48-1.6.95-2.4 1.41-1.39.79-2.8 1.562-4.22 2.32-.82.44-1.64.87-2.46 1.3-1.66.84-3.34 1.66-5.03 2.44-.84.39-1.68.78-2.52 1.16-1.49.67-2.99 1.31-4.5 1.93-.85.35-1.71.7-2.57 1.04-1.69.66-3.39 1.28-5.11 1.89-.87.31-1.75.61-2.63.91-1.91.64-3.84 1.24-5.78 1.81l-2.67.75c-2.26.62-4.55 1.19-6.85 1.73-.9.21-1.8.4-2.72.6-1.84.38-3.69.74-5.56 1.07-.91.16-1.82.31-2.74.45-2.08.32-4.16.6-6.27.84-.92.11-1.84.22-2.76.31-2.26.23-4.53.39-6.812.53-.92.05-1.85.1-2.78.13-1.13.05-2.26.08-3.4.11l23.96-50.39c1.48-.36 2.96-.73 4.41-1.15.9-.26 1.78-.52 2.67-.8 1.22-.38 2.432-.77 3.62-1.19.88-.3 1.76-.62 2.62-.94 1.04-.4 2.09-.8 3.12-1.22.86-.36 1.72-.72 2.56-1.09.91-.39 1.8-.8 2.69-1.21.84-.4 1.67-.8 2.5-1.21 1.03-.51 2.06-1.04 3.07-1.58.82-.44 1.64-.89 2.44-1.35.84-.48 1.67-.95 2.49-1.44.8-.48 1.6-.96 2.38-1.46.86-.55 1.72-1.11 2.57-1.67.77-.52 1.54-1.05 2.29-1.58.83-.58 1.64-1.17 2.46-1.77.74-.56 1.49-1.12 2.22-1.69.53-.42 1.05-.84 1.57-1.26.73-.59 1.44-1.18 2.15-1.79.63-.53 1.25-1.07 1.87-1.62.7-.62 1.39-1.25 2.07-1.88.47-.44.938-.88 1.398-1.32.67-.648 1.34-1.3 1.99-1.97.45-.46.92-.93 1.37-1.39.65-.68 1.29-1.36 1.91-2.05.44-.48.86-.96 1.3-1.44.62-.7 1.23-1.41 1.82-2.13.4-.47.79-.94 1.18-1.42.59-.73 1.17-1.46 1.74-2.2.32-.42.64-.82.95-1.24.57-.74 1.13-1.5 1.67-2.26.26-.35.51-.71.76-1.07.54-.77 1.07-1.54 1.59-2.32.28-.42.56-.86.85-1.28.5-.778 1.01-1.57 1.49-2.368.26-.41.5-.83.75-1.25.48-.8.95-1.62 1.41-2.43l.64-1.13c.45-.82.89-1.65 1.32-2.48.2-.39.4-.78.59-1.18.42-.84.83-1.68 1.24-2.53 3.37-7.12 6.04-14.64 7.92-22.46l50.36-23.53c-.58 26.52-7.5 51.5-19.32 73.48-.44.83-.89 1.64-1.35 2.45-.46.82-.92 1.64-1.39 2.45-.47.81-.94 1.61-1.42 2.41-.48.79-.97 1.578-1.46 2.36-.5.788-1 1.568-1.51 2.35-.55.83-1.09 1.67-1.65 2.49-.53.77-1.06 1.528-1.6 2.298-.59.84-1.2 1.68-1.812 2.52-.55.762-1.1 1.5-1.67 2.24-.56.74-1.12 1.48-1.7 2.22l-1.75 2.17.08.09-.084-.11z"/><path fill="#9C1737" d="M452.08 295.623c-1.806 1.39-3.62 2.76-5.45 4.11l-5.82-4.11h11.273-.003zm-16.087 0l8.273 5.842c-1.352.98-2.71 1.957-4.07 2.914l-11.61-8.76h7.407v.003zm-12.02 0l13.818 10.42c-1.32.916-2.65 1.834-3.98 2.73l-16.34-13.148h6.522v-.002h-.02zm-10.952 0l18.34 14.75c-1.39.916-2.79 1.83-4.2 2.726l-20.35-17.477h6.22-.01zm-10.47 0l22.142 19.02c-1.43.89-2.86 1.78-4.3 2.64l-23.59-21.65h5.76l-.01-.01zm-9.86 0l25.21 23.14c-1.29.766-2.6 1.52-3.9 2.27l-26.01-25.41h4.71-.01zm-8.68 0l27.48 26.836c-1.4.78-2.82 1.56-4.24 2.33l-27.97-29.17h4.74l-.01.003zm-86.96 50.666c2.01-.59 4-1.21 5.972-1.87l4.52 14.94c-2.3.4-4.6.77-6.91 1.12l-3.56-14.2-.02.01zm.81 14.6c-2.64.38-5.29.72-7.95 1.03l-2.57-13.122c2.37-.54 4.72-1.14 7.05-1.77l3.48 13.85-.01.01zm7.79-17.38c1.77-.62 3.53-1.27 5.27-1.95l5.66 16.09c-2.09.42-4.18.818-6.28 1.2l-4.64-15.35-.01.01zm7.85-2.99c1.57-.65 3.12-1.3 4.66-1.99l6.89 17.3c-1.898.43-3.81.86-5.728 1.27l-5.82-16.58zm7.19-3.15c1.75-.82 3.48-1.66 5.2-2.53l8.45 18.7c-2.18.56-4.36 1.1-6.55 1.62l-7.09-17.81v.01l-.01.01zm7.66-3.822c1.472-.78 2.932-1.58 4.37-2.4l10.08 20.05c-1.91.552-3.818 1.08-5.728 1.6l-8.7-19.27-.02.02zm6.78-3.798c1.51-.89 3-1.8 4.47-2.74l11.98 21.51c-2.02.64-4.04 1.28-6.07 1.88l-10.38-20.67v.02zm6.81-4.25c1.45-.96 2.89-1.93 4.31-2.93l14.12 23c-2.02.71-4.05 1.4-6.09 2.07l-12.33-22.15-.01.01zm6.57-4.55c1.03-.75 2.05-1.51 3.07-2.29l16.08 24.24c-1.54.58-3.08 1.148-4.62 1.71l-14.54-23.65h.01v-.01zm5.27-3.98c1.17-.932 2.32-1.87 3.46-2.82l18.44 25.58c-1.78.728-3.57 1.45-5.37 2.148l-16.53-24.92v.01zm5.59-4.62c.94-.812 1.86-1.62 2.78-2.45l20.75 26.77c-1.52.67-3.04 1.33-4.57 1.98l-18.95-26.29-.01-.01zm4.83-4.34c.92-.86 1.83-1.73 2.73-2.6l23.28 27.948c-1.56.73-3.12 1.45-4.69 2.16l-21.32-27.51zm4.72-4.56c.88-.89 1.76-1.78 2.62-2.69l26 29.06c-1.56.78-3.14 1.54-4.72 2.29l-23.89-28.68v.01l-.01.01zm4.52-4.73c.82-.9 1.63-1.8 2.43-2.71l28.87 30.1c-1.54.82-3.09 1.61-4.64 2.4l-26.65-29.802-.01.01zm-86.28 63.488c-2.13.23-4.27.44-6.41.63l-1.84-12.38c1.93-.34 3.84-.7 5.74-1.1l2.52 12.84-.01.01zm-9.18.89c-2.36.19-4.73.36-7.1.5l-1.17-11.82c2.16-.26 4.32-.538 6.46-.868l1.82 12.17-.01.02zm-9.87.642c-2.54.13-5.08.24-7.63.31l-.54-11.42c2.36-.14 4.7-.32 7.02-.55l1.16 11.65h-.01v.01zm-17.29-10.83c2.12-.01 4.24-.06 6.34-.15l.54 11.37c-2.29.05-4.59.07-6.89.08V352.9l.01.01zm-2.81-.02v11.318c-2.3-.02-4.59-.05-6.88-.11l.54-11.4c2.1.1 4.22.16 6.34.19m-9.11-.37l-.55 11.49c-2.55-.08-5.09-.188-7.63-.34l1.18-11.77c2.32.26 4.66.46 7.01.62m-9.76-.93l-1.19 11.93c-2.36-.15-4.73-.33-7.08-.528l1.84-12.34c2.14.36 4.28.68 6.44.95m-9.17-1.43l-1.87 12.55c-2.13-.19-4.27-.42-6.4-.66l2.57-13.04c1.9.41 3.8.8 5.71 1.16m-87.33-45.68c.89.87 1.78 1.74 2.69 2.59l-21.7 27.99c-1.56-.71-3.12-1.42-4.68-2.15l23.69-28.43h.01-.01zm-26.27 27.2c-1.57-.76-3.13-1.52-4.69-2.31l26.43-29.55c.85.9 1.7 1.8 2.57 2.688l-24.3 29.18v-.01h-.01zm30.99-22.7c.91.82 1.82 1.64 2.74 2.44l-19.34 26.77c-1.52-.64-3.04-1.31-4.54-1.97l21.1-27.24.02.03.02-.03zm4.86 4.27c1.13.96 2.27 1.9 3.41 2.82L128.8 341.5c-1.78-.7-3.56-1.43-5.33-2.16l18.79-26.07h-.01zm5.6 4.55c1 .78 2.01 1.54 3.02 2.29L136 344.32c-1.533-.56-3.065-1.134-4.597-1.72l16.4-24.703.048-.077zm5.27 3.94c1.4 1 2.81 1.98 4.25 2.938l-12.59 22.6c-2.02-.68-4.04-1.38-6.05-2.09l14.41-23.46h-.01l-.01.01zm6.58 4.47c1.46.95 2.93 1.87 4.42 2.76l-10.62 21.12c-2.02-.62-4.04-1.25-6.05-1.9l12.24-21.97v-.01h.01zm6.82 4.18c1.43.83 2.87 1.64 4.32 2.43l-8.9 19.67c-1.9-.52-3.81-1.06-5.71-1.62l10.29-20.48h.01-.01zm6.78 3.73c1.7.88 3.41 1.738 5.14 2.568l-7.25 18.19c-2.18-.52-4.36-1.08-6.53-1.64l8.64-19.11-.01-.01h.01zm7.66 3.75c1.53.7 3.06 1.38 4.61 2.03l-5.94 16.93c-1.9-.41-3.81-.83-5.71-1.27l7.05-17.682h-.01v-.01zm7.19 3.08c1.73.69 3.47 1.36 5.22 2l-4.74 15.67c-2.09-.39-4.18-.8-6.26-1.23l5.78-16.45v.01zm7.84 2.92c1.97.67 3.94 1.31 5.93 1.91l-3.63 14.478c-2.3-.37-4.61-.75-6.9-1.15l4.6-15.24v-.01.01zm8.59 2.71c2.32.65 4.67 1.25 7.02 1.82l-2.62 13.31c-2.65-.33-5.3-.68-7.94-1.06l3.55-14.12v.03l-.01.02zm-81.14-50.99c.27-.01.52-.06.75-.15.69.79 1.39 1.57 2.1 2.35l-27.1 30.29c-1.54-.79-3.07-1.6-4.6-2.41l28.87-30.09-.01.01h-.01zm-3.85 0l-27.6 28.79c-1.4-.772-2.8-1.55-4.2-2.34l27.01-26.39h4.73v.01l.06-.07zm-8.71 0L85.3 320.56c-1.295-.745-2.59-1.51-3.87-2.27l24.71-22.685h4.71l.01.01.02-.006zm-8.82 0L78.93 316.8c-1.43-.86-2.845-1.745-4.26-2.63l21.61-18.56H102v.01l.06-.01zm-10.02 0l-19.82 17c-1.39-.89-2.78-1.81-4.16-2.73l17.77-14.29H92l.01.02h.03zm-10.64 0l-15.81 12.62c-1.33-.9-2.65-1.81-3.97-2.72l13.22-9.972h6.52l.04.07zm-11.13 0l-11 8.3c-1.35-.96-2.7-1.93-4.05-2.9l7.64-5.4h7.41l-.01-.01.01.01zm-12.22 0l-5.17 3.65c-1.62-1.2-3.23-2.42-4.83-3.65h10H58h.05zM134.022 185.616c0-7.426.708-14.688 2.045-21.73l-45.99 21.492 45.896 21.444c-1.275-6.877-1.957-13.964-1.957-21.206h.006zm276.33.24l-45.888-21.443c1.272 6.877 1.942 13.964 1.942 21.203 0 7.427-.71 14.69-2.05 21.73l45.996-21.49zM223.596 72.503l23.47-50.23c-87.432 1.663-158.27 72.34-160.187 159.71l50.35-23.53c10.21-42.474 43.81-75.94 86.36-85.95h.006zm53.782.133c42.472 10.21 75.938 43.81 85.95 86.36l50.228 23.47C411.9 95.033 341.22 24.194 253.85 22.28l23.537 50.357h-.01zm-48.365-1.27c6.878-1.272 13.962-1.943 21.202-1.943 7.426 0 14.688.708 21.73 2.045l-21.49-45.993-21.442 45.89zm165.204 191.366c-.44.82-.895 1.637-1.35 2.45-.46.817-.92 1.635-1.395 2.446-.47.805-.94 1.606-1.423 2.406-.48.79-.976 1.575-1.47 2.36-.495.787-1 1.57-1.51 2.35-.544.837-1.092 1.67-1.65 2.49-.525.772-1.057 1.536-1.595 2.3-.594.844-1.2 1.68-1.813 2.514-.55.75-1.105 1.49-1.67 2.23-.562.74-1.124 1.48-1.7 2.21-.574.73-1.164 1.45-1.753 2.17-.655.8-1.32 1.6-1.992 2.39-.6.71-1.204 1.41-1.818 2.11-.77.88-1.543 1.75-2.33 2.6-.628.68-1.262 1.36-1.9 2.04-.826.87-1.666 1.73-2.51 2.59-.656.66-1.313 1.31-1.98 1.97-.865.84-1.74 1.68-2.62 2.5-.683.642-1.36 1.27-2.05 1.892-.882.8-1.77 1.59-2.67 2.36-.7.6-1.416 1.2-2.127 1.8-1.102.92-2.214 1.82-3.338 2.72-.727.58-1.463 1.14-2.2 1.71-.977.74-1.957 1.48-2.95 2.2-.75.54-1.5 1.09-2.26 1.63-1.37.96-2.76 1.9-4.16 2.83-.774.51-1.55 1.02-2.336 1.52-1.43.9-2.87 1.79-4.33 2.65-.8.47-1.6.94-2.41 1.4-1.4.79-2.81 1.56-4.22 2.32-.82.43-1.64.86-2.47 1.29-1.66.84-3.34 1.65-5.03 2.438-.84.39-1.68.78-2.53 1.16-1.49.66-2.99 1.31-4.51 1.93-.86.34-1.72.7-2.58 1.03-1.69.65-3.39 1.28-5.11 1.89-.88.31-1.75.61-2.63.9-1.91.64-3.84 1.24-5.78 1.81-.9.26-1.78.5-2.68.75-2.27.62-4.55 1.2-6.85 1.73-.9.21-1.81.4-2.72.6-1.84.38-3.69.73-5.562 1.06-.92.16-1.83.31-2.75.45-2.08.32-4.16.61-6.27.84-.92.11-1.84.222-2.77.312-2.26.23-4.53.39-6.81.53-.92.05-1.85.09-2.78.13-1.13.04-2.27.08-3.4.1l23.96-50.39c1.48-.37 2.96-.74 4.41-1.15.9-.26 1.78-.53 2.67-.8 1.21-.38 2.42-.78 3.62-1.2.88-.3 1.75-.62 2.61-.94 1.05-.4 2.09-.81 3.12-1.22.85-.36 1.71-.72 2.56-1.09.9-.39 1.79-.8 2.68-1.22.84-.4 1.67-.79 2.5-1.21 1.02-.52 2.05-1.05 3.07-1.59.82-.44 1.64-.88 2.44-1.34l2.49-1.44c.8-.48 1.59-.97 2.38-1.46.86-.55 1.72-1.11 2.57-1.68.77-.52 1.54-1.05 2.29-1.58.82-.58 1.64-1.17 2.45-1.77.738-.562 1.488-1.12 2.22-1.7.53-.41 1.05-.83 1.58-1.25.728-.59 1.438-1.182 2.148-1.79.63-.53 1.25-1.07 1.87-1.62.7-.62 1.39-1.25 2.07-1.88.47-.44.94-.88 1.4-1.32.67-.65 1.34-1.31 1.99-1.97.45-.46.91-.932 1.36-1.4.65-.67 1.28-1.35 1.91-2.05.438-.48.858-.97 1.3-1.45.62-.7 1.23-1.41 1.82-2.12.398-.47.79-.94 1.18-1.42.59-.73 1.16-1.46 1.74-2.19.318-.42.64-.83.938-1.24.57-.75 1.13-1.5 1.67-2.26l.76-1.07c.54-.78 1.07-1.55 1.58-2.32.28-.43.56-.86.85-1.29.5-.78 1.01-1.57 1.49-2.37.25-.42.49-.83.75-1.25.48-.8.95-1.62 1.41-2.43l.64-1.14c.45-.82.89-1.65 1.32-2.48.2-.39.4-.78.59-1.18.43-.84.83-1.69 1.24-2.54 3.37-7.12 6.04-14.64 7.93-22.46l50.36-23.53c-.59 26.51-7.51 51.5-19.32 73.47M119.26 283.2c-.56-.743-1.11-1.5-1.65-2.26-.6-.82-1.19-1.653-1.77-2.496-.53-.76-1.06-1.53-1.58-2.3-.55-.81-1.09-1.63-1.62-2.46-.51-.78-1-1.57-1.5-2.36-.48-.773-.96-1.554-1.42-2.34-.48-.8-.97-1.6-1.43-2.41-.46-.8-.91-1.61-1.36-2.414-.45-.815-.89-1.64-1.33-2.46-11.6-21.91-18.37-46.75-18.87-73.1L137 212.12c1.806 7.686 4.374 15.088 7.63 22.1.39.86.796 1.7 1.21 2.55.188.378.37.758.57 1.134.424.84.86 1.67 1.3 2.5.205.36.4.73.603 1.09.452.82.912 1.64 1.39 2.44.24.41.48.82.717 1.22.48.807.973 1.604 1.48 2.39.264.425.53.84.804 1.257.517.792 1.04 1.57 1.57 2.342.24.36.478.7.726 1.06.54.77 1.09 1.52 1.644 2.28.3.41.606.82.916 1.22.57.75 1.145 1.49 1.73 2.22.37.47.744.95 1.13 1.41.595.73 1.197 1.44 1.81 2.15.41.48.83.95 1.25 1.42.62.7 1.26 1.39 1.9 2.08.436.47.88.93 1.32 1.39.656.67 1.31 1.34 1.976 1.99.443.44.895.89 1.347 1.31.672.65 1.363 1.29 2.053 1.92.605.55 1.216 1.08 1.827 1.61.7.61 1.417 1.22 2.134 1.81.505.42 1.02.84 1.533 1.25.724.59 1.46 1.16 2.203 1.73.79.6 1.588 1.19 2.39 1.78.756.54 1.518 1.08 2.288 1.61.83.57 1.67 1.13 2.52 1.68.78.51 1.57 1 2.37 1.49.81.51 1.62.99 2.44 1.46.81.47 1.61.93 2.43 1.39 1 .55 2.01 1.09 3.03 1.61.84.43 1.67.84 2.5 1.25.88.42 1.76.84 2.65 1.24.84.39 1.7.76 2.55 1.12 1.02.43 2.05.84 3.08 1.25.87.34 1.74.67 2.61.98 1.19.438 2.39.85 3.6 1.23.89.298 1.77.568 2.66.84 1.46.438 2.93.85 4.42 1.228.51.14 1.02.25 1.54.37l23.54 50.38c-1.55-.02-3.09-.07-4.63-.15-.93-.04-1.85-.11-2.78-.18-2.27-.15-4.54-.36-6.8-.6-.92-.1-1.84-.2-2.76-.32-2.1-.27-4.17-.59-6.24-.93-.91-.15-1.83-.31-2.73-.48-1.86-.34-3.7-.72-5.53-1.12-.9-.2-1.81-.41-2.71-.62-2.29-.55-4.57-1.13-6.82-1.77-.9-.26-1.78-.53-2.67-.8-1.93-.58-3.84-1.2-5.74-1.86-.88-.31-1.75-.61-2.62-.93-1.7-.62-3.38-1.27-5.06-1.95-.86-.34-1.72-.69-2.58-1.05-1.49-.64-2.98-1.29-4.45-1.97-.85-.39-1.69-.78-2.52-1.18-1.67-.81-3.33-1.64-4.97-2.5-.82-.42-1.64-.86-2.46-1.3-1.4-.76-2.79-1.55-4.16-2.35-.8-.472-1.61-.93-2.4-1.41-1.44-.87-2.86-1.77-4.27-2.68-.78-.51-1.56-1.01-2.33-1.53-1.38-.932-2.75-1.89-4.1-2.86-.75-.54-1.5-1.09-2.25-1.64-.98-.73-1.95-1.46-2.9-2.21-.74-.57-1.46-1.15-2.18-1.74-1.11-.9-2.21-1.8-3.29-2.72-.71-.602-1.42-1.2-2.12-1.82-.88-.78-1.76-1.56-2.62-2.352-.69-.63-1.37-1.27-2.05-1.9-.87-.83-1.72-1.658-2.57-2.51-.66-.648-1.31-1.32-1.95-1.978-.83-.85-1.65-1.72-2.46-2.59-.64-.68-1.27-1.36-1.9-2.05-.77-.86-1.54-1.722-2.3-2.6-.6-.702-1.2-1.42-1.8-2.132-.66-.78-1.3-1.58-1.95-2.37-.58-.73-1.16-1.46-1.73-2.19-.56-.72-1.12-1.44-1.67-2.18m110.83 16.704c1.31.23 2.63.44 3.96.62.91.13 1.84.25 2.76.35 1.45.17 2.91.31 4.37.43.92.07 1.85.13 2.77.18 1.29.06 2.6.11 3.9.13h.03c.74.01 1.48.03 2.22.03.18 0 .35-.01.53-.01h.03c1.3-.01 2.61-.04 3.9-.09.93-.03 1.86-.08 2.78-.14 1.47-.09 2.94-.2 4.39-.35.92-.09 1.84-.2 2.76-.31 1.33-.17 2.66-.36 3.98-.562.92-.15 1.84-.31 2.75-.47l.71-.15-22.09 46.3-21.66-46.353c.63.13 1.25.25 1.88.36M157.332 471.12c30.366 7.044 61.678 10.616 93.097 10.616 31.41 0 62.73-3.572 93.088-10.617l-9.11-43.17c-54.97 11.31-113 11.31-167.97 0l-9.11 43.16.004.01z"/><path fill="#FFF" d="M203.393 461.65l2.696-18.625 4.3.62-3.79 26.183-4.71-.684-7.67-20.125-2.7 18.624-4.3-.62 3.79-26.183 4.71.69 7.66 20.13.013-.01zm9.91-9.85c.41-4.97 4.416-8.92 9.987-8.46 5.65.47 8.948 5.03 8.536 9.997-.412 4.967-4.417 8.926-10.064 8.457-5.572-.46-8.873-5.012-8.46-9.988m14.42 1.195c.25-3.01-1.572-5.73-4.734-6-3.086-.25-5.332 2.15-5.583 5.16-.248 3.01 1.57 5.75 4.66 6 3.162.27 5.407-2.12 5.657-5.13m10.726 10.42c-.09 3.452 2.124 5.472 4.92 5.542 2.756.08 4.47-1.84 4.528-3.99.066-2.48-1.054-4.41-4.644-4.5l-1.775-.04.103-3.85 1.812.05c3.144.09 4.126-1.48 4.188-3.74.062-2.22-1.46-3.4-3.648-3.46-3.135-.08-4.24 1.67-4.312 4.28l-4.34-.11c.134-4.91 3.658-8.18 8.457-8.05 4.534.12 8.314 3.1 8.2 7.47-.08 3.03-1.603 4.87-3.736 5.72 2.355 1.01 4.162 2.99 4.064 6.35-.123 4.8-4.286 7.95-9.165 7.81-4.8-.118-9.13-3.6-8.97-9.528l4.34.13-.03-.04.008-.043zm34.134-17.67l-10.607 26.722-4.61.12 9.19-22.79-10.73.27-.098-3.89 16.855-.42v-.01zm1.616 8.74c-.38-4.96 2.946-9.51 8.522-9.93 5.65-.43 9.635 3.54 10.014 8.52l.68 8.82c.383 4.98-2.943 9.51-8.598 9.95-5.576.44-9.56-3.54-9.94-8.52l-.677-8.82h-.01l.008-.02zm14.204-1.09c-.223-2.9-2.37-5.188-5.383-4.96-2.98.23-4.722 2.83-4.49 5.73l.68 8.82c.22 2.91 2.33 5.21 5.31 4.98 3.01-.23 4.78-2.83 4.56-5.73l-.68-8.81v-.01l.002-.02zm12.622 7.53c.46 3.41 2.967 5.06 5.737 4.69 2.734-.36 4.12-2.53 3.833-4.66-.333-2.47-1.744-4.19-5.304-3.71l-1.76.24-.52-3.81 1.797-.24c3.107-.41 3.825-2.11 3.523-4.36-.3-2.2-1.98-3.12-4.15-2.83-3.11.43-3.92 2.32-3.57 4.91l-4.31.59c-.65-4.87 2.31-8.66 7.06-9.3 4.49-.6 8.7 1.73 9.28 6.08.41 2.99-.81 5.06-2.78 6.24 2.49.62 4.58 2.28 5.02 5.61.642 4.76-2.97 8.53-7.8 9.17-4.75.64-9.59-2.1-10.38-7.97l4.31-.58.03-.04-.016-.03z"/><path fill="#9C1737" d="M56.647 338.132l9.622 6.447-2.01 2.975-2.22-1.49c-3.94 3.937-9.38 4.81-14.98 1.056-6.63-4.436-6.98-12.083-3.3-17.575 3.67-5.49 11.12-7.912 17.5-3.633 4.76 3.2 6.29 8.54 4.21 12.33L62.13 336c.983-2.22-.062-5.223-2.86-7.1-4.34-2.904-9.457-1.02-12.104 2.947-2.655 3.96-2.68 9.255 2.313 12.604 3.44 2.31 6.96 1.486 9.04-.728l-3.88-2.59 1.99-2.975.01-.012.007-.013zm9.755 20.453l-3.26-1.938L75.58 335.71l3.26 1.94-12.438 20.94v-.005zm10.482-1.994c-.96 2.134-.967 4.266 1.815 5.774 1.89 1.027 3.09.57 4.04-.224l3.35 1.84c-1.73 2.23-5.28 3.16-8.92 1.19-4.8-2.6-5.34-7.16-3.07-11.35 2.32-4.28 6.59-6.11 11.09-3.67 3.69 2.01 5.09 6.37 3.11 10.01-.27.49-.63 1.16-1.29 2l-10.19-5.52.02-.022.044-.027zm1.342-2.475l7.094 3.848c1.178-2.17.47-4.295-1.55-5.385-2.046-1.105-4.283-.78-5.544 1.55m17.005 1.763l3.43 1.62-.96 2.05c1.66-1.14 3.76-1.19 5.93-.16 2.11 1 3.23 2.46 3.47 4.07.21 1.45-.16 2.772-1.11 4.79l-4.13 8.72-3.42-1.62 3.58-7.58c1.19-2.51 1.38-4.77-1.08-5.93-2.39-1.12-4.42.26-5.62 2.77l-3.59 7.58-3.42-1.618 6.92-14.65.03-.01-.03-.03zm37 22.102l-9.42-3.49-3.58 9.66-3.75-1.39 8.47-22.83 3.75 1.39-3.64 9.82 9.43 3.5 3.64-9.81 3.75 1.39-8.46 22.84-3.75-1.39 3.59-9.68-.03-.01zm24.63 1.63l-4.68 15.52-3.63-1.09.66-2.16c-1.47 1.38-3.54 1.74-5.83 1.05-2.23-.67-3.55-1.94-4.03-3.5-.41-1.39-.25-2.76.39-4.89l2.79-9.22 3.63 1.09-2.41 8.04c-.8 2.67-.64 4.92 1.95 5.71 2.53.76 4.35-.9 5.15-3.57l2.43-8.02 3.63 1.1-.02-.04-.03-.02zm4.85 1.32l3.69.89-.53 2.2c1.39-1.45 3.44-1.93 5.77-1.36 2.27.55 3.66 1.75 4.22 3.28.5 1.37.42 2.75-.1 4.91l-2.25 9.37-3.68-.88 1.96-8.142c.65-2.7.37-4.95-2.27-5.58-2.57-.61-4.28 1.15-4.93 3.86l-1.96 8.16-3.68-.88 3.79-15.76v-.03l-.03-.04zm24.97 22.018c-.6 0-1.71-.11-2.8-.32-1.81-.34-5.11-1.228-4.08-6.59l1.43-7.41-2.7-.51.6-3.11 2.7.53.93-4.82 3.73.72-.92 4.82 3.66.7-.6 3.11-3.65-.7-1.26 6.56c-.53 2.77.26 3.28 1.73 3.562.58.11 1.52.22 1.91.22l-.63 3.28v-.01l-.05-.032zm7.4 1.22l-3.74-.6 3.88-24.03 3.75.6-3.87 24.04-.02-.01zm11.88 10.152c-2.14-.24-3.94-1.02-5.16-2.29-1.21-1.26-1.85-3.02-1.62-5.23l3.8.45c-.1 2.34 1.42 3.68 3.39 3.91 2.32.29 4.04-.35 4.39-3.36l.44-3.69c-1.2 1.61-3.18 2.32-5.56 2.04-2.31-.27-3.83-1.29-4.58-2.74-.64-1.3-.73-2.69-.47-4.89l1.14-9.56 3.77.45-.98 8.33c-.33 2.77.22 4.97 2.91 5.29 2.63.31 4.12-1.64 4.45-4.41l1-8.32 3.77.45-2.08 17.56c-.28 2.38-1.19 4.06-2.63 5.08-1.45 1.02-3.45 1.37-5.94 1.08l.01-.07-.04-.04-.01-.04zm24.5-30.65l8.73.31c5.21.19 8.45 4.24 8.28 8.83-.17 4.6-3.67 8.4-8.89 8.22l-4.73-.17-.25 7.31-4-.14.86-24.33.02-.02-.02-.01zm13.02 8.99c.1-2.67-1.63-4.99-4.41-5.102l-4.73-.17-.35 9.88 4.73.17c2.78.11 4.67-2.09 4.77-4.77m17.692 3.03c-.59-.12-.9-.16-1.5-.15-3.23.05-4.98 1.932-4.91 5.96l.12 7-3.79.062-.26-16.2 3.79-.06.05 2.61c.71-1.51 2.81-2.86 4.96-2.9.6-.01 1.08.05 1.5.22l.06 3.48v-.01l-.02-.012zm4.27-12.44c1.57-.06 2.868 1.13 2.938 2.7.06 1.53-1.13 2.83-2.7 2.9-1.53.07-2.83-1.12-2.9-2.65-.07-1.56 1.13-2.87 2.66-2.93m-1.5 8.81l3.78-.17.7 16.2-3.79.17-.7-16.19h.01v-.01zm30.71 13.9l-.88-9.03c-.24-2.57-1.31-4.1-3.41-3.89-1.9.19-3.27 1.51-2.9 5.35l.802 8.21-3.77.37-.89-9.08c-.25-2.56-1.24-4.07-3.352-3.86-1.91.19-3.35 1.522-2.98 5.36l.8 8.21-3.77.37-1.58-16.13 3.78-.36.22 2.25c.55-1.55 2.13-2.9 4.24-3.1 2.94-.28 4.52.85 5.37 2.38.6-1.7 2.38-3.13 4.67-3.36 4.84-.47 6.14 2.76 6.43 5.77l1.03 10.16-3.78.372-.01.04-.02-.03zm22.56-19.95l2.722 15.99-3.73.64-.37-2.16c-.73 1.78-2.65 3.1-4.5 3.41-4.87.83-8.86-2.48-9.63-7-.77-4.52 1.89-8.97 6.76-9.79 1.85-.31 4.1.29 5.38 1.74l-.35-2.2 3.74-.64-.01.04-.01-.03zm-2.38 8.63c-.47-2.74-2.72-4.76-5.6-4.27-2.81.48-4.27 3.13-3.8 5.87.46 2.75 2.71 4.77 5.53 4.29 2.88-.48 4.33-3.13 3.87-5.88m18.09-8.47c-.608-.01-.92.03-1.5.16-3.16.7-4.488 2.89-3.62 6.83l1.512 6.82-3.7.81-3.51-15.82 3.7-.81.56 2.55c.39-1.62 2.18-3.37 4.29-3.83.58-.13 1.07-.17 1.52-.09l.75 3.4.01-.02h-.01zM348.37 404c-2.08.566-4.048.522-5.64-.193-1.605-.72-2.854-2.107-3.465-4.25l3.692-1c.78 2.203 2.69 2.877 4.604 2.354 2.25-.608 3.605-1.84 2.808-4.763l-.982-3.586c-.514 1.94-2.08 3.34-4.4 3.976-2.25.61-4.048.24-5.277-.832-1.1-.96-1.684-2.21-2.268-4.353l-2.53-9.297 3.66-.99 2.2 8.09c.74 2.684 2.06 4.516 4.68 3.81 2.55-.69 3.21-3.073 2.48-5.757l-2.2-8.094 3.66-1 4.64 17.06c.63 2.32.43 4.22-.54 5.7-.96 1.49-2.69 2.57-5.1 3.23l-.02-.06.03-.02-.032-.022zm19.56-23.208c1.08 2.976 3.56 4.002 6.146 3.062 2.09-.762 3.276-2.71 2.523-4.764-.85-2.32-3.18-2.33-4.95-2.31-4.72.06-8.56 0-10.22-4.58-1.38-3.79.99-7.46 4.81-8.85 4.11-1.49 8.34.27 9.89 4.52l-3.77 1.37c-.82-2.26-2.69-3.32-4.81-2.55-1.86.68-3.09 2.23-2.38 4.16.67 1.858 2.63 2.15 4.55 2.16 4.03-.02 8.85-.07 10.45 4.31 1.71 4.71-.99 8.5-5.24 10.04-4.16 1.52-8.95-.04-10.81-5.18l3.76-1.36.01-.01.04-.018zm25.19-12.433c-.896-1.55-2.312-2.23-4.686-1.22-2.69 1.148-3.055 3.908-1.975 6.44 1.09 2.56 3.23 4.218 6.24 2.938 2.047-.88 2.5-2.13 2.304-3.83l3.49-1.49c.84 3.3-.408 6.67-4.72 8.52-4.862 2.07-9.068-.6-10.805-4.66-1.72-4.04-.75-8.95 4.08-11.02 4.86-2.07 8.11.02 9.56 2.81l-3.49 1.48h.01l-.01.03zm1.107-15.87l3.393-1.69 4.6 9.32c.13-2 1.4-3.67 3.55-4.74 2.09-1.03 3.92-1.01 5.33-.2 1.25.74 2.07 1.85 3.06 3.84l4.27 8.64-3.398 1.68-3.72-7.52c-1.23-2.49-2.89-4.04-5.33-2.84-2.38 1.18-2.56 3.63-1.32 6.13l3.71 7.51-3.4 1.68-10.79-21.83.02-.02.025.04zm24.147 6.09c-2.266-4-1.266-9.08 3.215-11.62 4.53-2.57 9.41-.82 11.67 3.18 2.26 3.99 1.26 9.07-3.28 11.65-4.48 2.54-9.35.78-11.62-3.22m11.59-6.56c-1.37-2.43-4.17-3.562-6.71-2.12-2.48 1.408-2.95 4.39-1.58 6.81s4.17 3.55 6.66 2.14c2.54-1.44 3.01-4.42 1.63-6.85m5.88-3.43c-2.49-3.86-1.78-8.99 2.55-11.78 4.38-2.83 9.35-1.35 11.84 2.51s1.78 8.99-2.61 11.81c-4.34 2.79-9.29 1.31-11.78-2.55m11.2-7.21c-1.51-2.34-4.37-3.312-6.82-1.73-2.4 1.55-2.7 4.55-1.2 6.89s4.36 3.31 6.76 1.77c2.45-1.58 2.75-4.59 1.24-6.93m14.34-.03l-3.11 2.18-14.01-19.91 3.11-2.18 14.01 19.91z"/><path fill="#FFF" d="M123.944 136.812c-3.473-1.098-6.048 1.116-6.516 2.59.177-2.038-.92-4.726-3.803-5.64-2.39-.755-6.535-.877-8.52 5.414l-2.478 7.83 22.943 7.26 2.488-7.864c1.992-6.287-1.71-8.83-4.1-9.59m-9.217 5.42l-1.28 4.063-6.26-1.978 1.29-4.064c.98-3.08 3.14-2.97 4.29-2.608 1.11.354 2.94 1.515 1.97 4.596m9.99 2.95l-1.35 4.26-6.55-2.07 1.36-4.29c.91-2.88 3.29-2.88 4.44-2.52 1.34.43 3.08 1.55 2.1 4.63m12.79-21.11l1.83-3.72-25.26-3.16-1.23 2.5 17.92 18.09 1.84-3.73-2.29-2.27 3.99-8.11 3.2.43.03-.01-.03-.02zm-9.84 5.05l-8.3-7.8 11.23 1.85-2.93 5.95h.01-.01zm-2.09-24.81l17.03 11.46 2.21-3.27-17.02-11.45 3.34-4.95-2.94-1.97-8.86 13.18 2.93 1.98 3.32-4.95-.01-.03zm26.27-1.35l-10.82-10.23 14.94 5.85 2.06-2.18-6.67-14.59 10.81 10.23 2.72-2.87-17.47-16.53-2.61 2.75 7.74 17.88-18.3-6.71-2.6 2.75 17.48 16.54 2.72-2.86v-.03zm17.69-17.21l-.99-3.07 7.26-5.37 2.65 1.85 3.34-2.47-21-14.4-2.24 1.66 7.62 24.29 3.34-2.47.03-.02h-.01zm3.21-10.57l-5.34 3.95-3.8-10.74 9.13 6.8.01-.01zm14.04-1.2l-7.88-15.18 16.34 10.81 3.85-1.99-11.08-21.35-3.51 1.83 7.88 15.19-16.33-10.81-3.85 2 11.07 21.33 3.51-1.82V74zm105.95-19.29l9.392 3.27 1.16-3.34-9.37-3.26 2.5-7.21 9.39 3.26 1.16-3.34-13.11-4.56-7.89 22.73 3.74 1.3 3.06-8.83-.03-.02zm20.04 18.76l1.57-3.17-6.66-3.28 9.09-18.4-3.54-1.75-10.66 21.57 10.21 5.04-.01-.01zm18.44-16.86L318.7 77.13l-3.496-2.133 12.53-20.534 3.496 2.143.01.005zm-5.64 25.11l10.592-13.46-3.1 19.35 3.4 2.69 14.88-18.91-3.102-2.44-10.59 13.45 3.1-19.34-3.4-2.67L322.5 79.3l3.11 2.434-.01-.013zm19.08 17.1c5.312 5.94 12.74 5.33 17.28 1.28 4.53-4.05 5.96-11.37.64-17.31l-5.198-5.81-17.93 16.05 5.2 5.82.02-.01-.01-.02zm12.72-16.55l2.56 2.87c3.58 4 2.49 9.08-.71 11.94-3.19 2.87-8.36 3.39-11.93-.61l-2.57-2.87 12.65-11.32v-.01zm4.6 40.03l2.98-1.91-5.37-8.35 5.58-3.58 5.37 8.36 2.98-1.91-5.36-8.35 5.73-3.67 5.37 8.36 2.99-1.92-7.51-11.68-20.23 13.01 7.5 11.64H362zm3.59 7.09l6.58-2.96 1.62 3.61-4.78 6.98 1.852 4.1 5.19-7.57c2.49 2.34 6.07 2.85 9.2 1.44 4.14-1.86 6.31-6.49 4.2-11.2l-3.53-7.87-21.94 9.87 1.63 3.6-.02-.02v.02zm18.7-8.41l1.92 4.27c1.13 2.51-.17 5.06-2.59 6.14-2.42 1.09-5.19.37-6.31-2.13l-1.92-4.26 8.9-4 .02-.01-.02-.01zm-.4 27.91c-.118 1.75-.31 4.05-2.648 4.71-2.09.59-3.91-.73-4.5-2.85-.72-2.61.47-4.97 3.48-5.81l-1.06-3.81c-5.2 1.44-7.102 6.04-5.93 10.25 1.198 4.31 4.72 7.26 9.488 5.93 4.44-1.23 4.76-5.99 5.05-9.96.15-1.89.59-3.8 2.48-4.32 1.96-.54 3.39.77 3.92 2.67.6 2.15-.59 3.91-2.88 4.54l1.06 3.82c4.31-1.19 6.36-5.23 5.2-9.4-1.08-3.87-4.51-6.49-8.36-5.42-4.64 1.28-4.98 5.06-5.29 9.71M139.45 247.3l-9.35 4.86-2.82-5.44-1.84-3.55 9.35-4.86-1.86-3.57-21.75 11.31 1.85 3.575 9.19-4.78 2.08 3.98 2.6 5.01-9.2 4.78 1.86 3.574 21.748-11.312-1.85-3.57-.008-.008zm-11.36 28.16c.08.11.15.23.23.34.41.55.85 1.03 1.32 1.45 3.24 2.9 7.71 2.86 11.04.36l13.058-9.8-2.415-3.226-13.052 9.8c-1.84 1.39-4.21 1.57-5.98.3-.39-.28-.74-.63-1.06-1.05-.16-.21-.29-.435-.41-.654-1.14-2.18-.33-4.74 1.7-6.26l13.05-9.8-2.41-3.22-13.05 9.81c-3.71 2.79-4.85 7.8-1.98 11.97m13.98 15.71L152.34 280l-5.73 15.316 2.244 2.06 14.763-7.03-10.25 11.18 2.965 2.72 16.566-18.064-2.84-2.617-18.09 8.165 6.554-18.75-2.845-2.604-16.57 18.064 2.96 2.71.044.04zm32.57 25.07l1.94-3.04-8.53-5.44 3.64-5.688 8.53 5.44 1.94-3.04-8.54-5.44 3.73-5.84 8.53 5.44 1.94-3.03-11.94-7.62-13.18 20.68 11.94 7.58zm124.31-13.75l-1.51 19.79-13.3-14.74-3.65 1.24 7.89 23.21 3.82-1.29-4.88-14.35L298 328.71l2.884-.97.918-16.36 4.88 14.35 3.81-1.29-7.89-23.2-3.642 1.236.03.035zm17.92 18.56l-11.01-21.89 3.72-1.87 11.02 21.9-3.72 1.86h-.01zm10.2-30.05l-1.92-3.05-13.7 8.62 1.92 3.05 5.13-3.22 11.13 17.71 3.41-2.14-11.13-17.7 5.16-3.26v-.01zm24.55-3.64c1.24 2.64.31 6.2-1.82 8.07-4.478 3.92-9.77 2.92-13.09-.87-3.16-3.61-3.64-9.06.6-12.77 3.03-2.65 6.722-2.48 9.382-.34l3.19-2.79c-4.06-3.47-9.86-4.03-15.34.77-5.8 5.08-5.32 12.86-.94 17.86 4.54 5.19 12.15 6.49 18.19 1.22 4.53-3.97 5.478-9.73 3.16-14.03l-3.32 2.91v-.01l-.01-.02zm2.37-28.28l8.28 6.53-6.26 7.95-8.29-6.52-2.48 3.16 19.25 15.17 2.49-3.16-8.14-6.41 6.26-7.94 8.14 6.42 2.5-3.16-19.25-15.17-2.5 3.13zm25.76 5.71l4.91-8.75 2.02-3.59-3.14-1.77-1.83 3.27-3.12 5.56-5.89-3.31 3.46-6.17 1.49-2.65-3.15-1.76-1.3 2.33-3.65 6.5-6.04-3.4 4-7.12.96-1.698-3.14-1.77-.77 1.37-6.16 10.96 21.38 11.978-.03.02zm14.14-29.27l-3.34-1.358-2.85 7-19.36-7.89-1.52 3.73 22.69 9.25 4.39-10.73h-.01zm4.75-15.97l-3.47-.99-2.07 7.28-20.1-5.74-1.1 3.88 23.57 6.72 3.19-11.15h-.02z"/></svg>